# xmcd
#
# Track frame offsets: 
#        150
#        13392
#        27426
#        40789
#        53592
#        68960
#        78748
#        91808
#        104806
#        118618
#        129370
#        141924
#        153118
#        167077
#        180822
#
# Disc length: 2600 seconds
#
# Revision: 0
# Processed by: cddbd v1.5.2PL0 Copyright (c) Steve Scherf et al.
# Submitted via: ExactAudioCopy v0.95b4
#
DISCID=c20a260f
DTITLE=Various Artist - This Is Blues [disc 1: 1927-1950]
DYEAR=2007
DGENRE=Blues
TTITLE0=Blind Lemon Jefferson - See That My Grave Is Kept Clean [c1928
TTITLE0=]
TTITLE1=Charley Patton - High Water Everywhere, part 2 [1929]
TTITLE2=Helen Humes - Garlic Blues [1927]
TTITLE3=Mary Johnson - Morning Sun Blues [1930]
TTITLE4=Jimmy Rushing with Count Basie and HO - Goin' to Chicago [1941]
TTITLE5=Leadbelly and Sonny Terry - How Long Blues [1943]
TTITLE6=T-Bone Walker with Marl Young's O - Mean Old World Blues [1944
TTITLE6=]
TTITLE7=Dinah Washington with Lucky Thompson's All Stars - Chewin' Mam
TTITLE7=a Blues [1945]
TTITLE8=Julia Lee with the Tommy Douglas O - Dream Lucky Blues [1945]
TTITLE9=Muddy Waters - Mean Red Spider [1946]
TTITLE10=Martha Davis and the Esquires - Lovin' Blues [1946]
TTITLE11=Maxin Trio feat. Ray Charles - Confession Blues [1949]
TTITLE12=Robert Nighthawk - She Knows How to Love a Man [1949]
TTITLE13=Big Mama Thornton - Bad Luck Got My Man [1950]
TTITLE14=Big Jay McNeely - Midnight Dreams [1950]
EXTD=Disc 1 recorded 1927-11-26/1950.\nDisc 2 recorded 1950-03/c1973.\n
EXTD=The album includes a third undocumented bonus disc that apparentl
EXTD=y varies. Two such possibilities are Ray Charles: "The Essentials
EXTD=" (Cleopatra 4424, 2006-04-25) and Tony Bennett: "The Platinum An
EXTD=thology" (Cleopatra 8053, 2005-08-23).\nProduced and compiled by 
EXTD=Athan Maroulis.\nMastering: Mr. Master, Agoura Hills US-CA\n2CD+v
EXTD=ariable bonus CD: Cleopatra/Master Classics MCS 8074 (2007-06-26)
EXTD=, UPC 881162807429.
EXTT0=(Blind Lemon Jefferson)
EXTT1=(Charley Patton)
EXTT2=(C. Williams)
EXTT3=(Mary Johnson)
EXTT4=(Count Basie/Jimmy Rushing)
EXTT5=(Huddie Ledbetter)
EXTT6=(Aaron "T-Bone" Walker]\nRecorded at Quality Recording, Chicago 
EXTT6=US-IL, 1944-10-10 (mx 3310-1) - Rhumboogie single #4003 (1945-11)
EXTT6=\nT-Bone Walker (1910/1975): guitar, vocal\nMarl Young: piano, 
EXTT6=bandleader\nHenderson Smith, Nick Cooper: trumpet\nNathan Jones,
EXTT6=Frank Derrick: alto sax\nMoses Grant: tenor sax\nMickey Sims: b
EXTT6=ass\nRed Saunders: drums\nSee <http://hubcap.clemson.edu/~campbe
EXTT6=r/rhumboogie.html>.
EXTT7=(John Henry)
EXTT8=(Julia Lee]\nRecorded Kansas City US-MO, 1945-08-16 (mx 20240) - 
EXTT8=Mercury 8013.\nJulia Lee (1902/1958): vocal, piano\nTommy Dougla
EXTT8=s (1911/1965): alto sax, clarinet, bandleader\nClarence Davis: t
EXTT8=rumpet\nHarry Ferguson, Freddy Culliver: tenor sax\nEfferge Ware
EXTT8=: guitar\nBen Curtis: bass\nBaby Lovett: drums
EXTT9=(McKinley Morganfield)
EXTT10=(Brock)
EXTT11=(Ray Charles)
EXTT12=(Robert McCullom)
EXTT13=
EXTT14=(Jay McNeely/Clifford Blivens)
PLAYORDER=
